<svg width="80" height="40" viewBox="0 0 80 40" fill="none" xmlns="http://www.w3.org/2000/svg">
<path d="M0 8C0 3.58172 3.58172 0 8 0H72C76.4183 0 80 3.58172 80 8V32C80 36.4183 76.4183 40 72 40H8C3.58172 40 0 36.4183 0 32V8Z" fill="#674EFF"/>
<path fill-rule="evenodd" clip-rule="evenodd" d="M17.5 16.4993C17.5 16.1015 17.658 15.72 17.9393 15.4387C18.2206 15.1574 18.6022 14.9993 19 14.9993H30C30.3978 14.9993 30.7794 15.1574 31.0607 15.4387C31.342 15.72 31.5 16.1015 31.5 16.4993V16.9993H17.5V16.4993ZM17.5 17.9993H31.5V23.4993C31.5 23.8972 31.342 24.2787 31.0607 24.56C30.7794 24.8413 30.3978 24.9993 30 24.9993H19C18.6022 24.9993 18.2206 24.8413 17.9393 24.56C17.658 24.2787 17.5 23.8972 17.5 23.4993V17.9993ZM25.5 21.4993C25.3674 21.4993 25.2402 21.552 25.1464 21.6458C25.0527 21.7396 25 21.8667 25 21.9993C25 22.132 25.0527 22.2591 25.1464 22.3529C25.2402 22.4467 25.3674 22.4993 25.5 22.4993H28.5C28.6326 22.4993 28.7598 22.4467 28.8536 22.3529C28.9473 22.2591 29 22.132 29 21.9993C29 21.8667 28.9473 21.7396 28.8536 21.6458C28.7598 21.552 28.6326 21.4993 28.5 21.4993H25.5Z" fill="white"/>
<path d="M39.2178 24V15.2727H42.9636C43.6255 15.2727 44.1809 15.3636 44.6298 15.5455C45.0815 15.7244 45.421 15.9787 45.6482 16.3082C45.8783 16.6349 45.9934 17.0199 45.9934 17.4631C45.9934 17.7869 45.9238 18.081 45.7846 18.3452C45.6454 18.6065 45.4494 18.8253 45.1965 19.0014C44.9465 19.1776 44.6553 19.2997 44.3229 19.3679V19.4531C44.6923 19.4673 45.0289 19.5625 45.3329 19.7386C45.6369 19.9119 45.8798 20.152 46.0616 20.4588C46.2434 20.7628 46.3343 21.1222 46.3343 21.5369C46.3343 22.0114 46.2107 22.4347 45.9636 22.8068C45.7193 23.1761 45.3684 23.4673 44.911 23.6804C44.4565 23.8935 43.911 24 43.2747 24H39.2178ZM41.519 22.1591H42.6781C43.0928 22.1591 43.4011 22.0824 43.6028 21.929C43.8073 21.7727 43.9096 21.5455 43.9096 21.2472C43.9096 21.0369 43.8613 20.858 43.7647 20.7102C43.6681 20.5625 43.5303 20.4503 43.3514 20.3736C43.1752 20.294 42.9622 20.2543 42.7122 20.2543H41.519V22.1591ZM41.519 18.8182H42.5417C42.7548 18.8182 42.9437 18.7841 43.1085 18.7159C43.2732 18.6477 43.4011 18.5497 43.492 18.4219C43.5857 18.2912 43.6326 18.1321 43.6326 17.9446C43.6326 17.669 43.5346 17.456 43.3386 17.3054C43.1425 17.1548 42.8883 17.0795 42.5758 17.0795H41.519V18.8182ZM51.3674 21.1449V17.4545H53.6472V24H51.4782V22.7642H51.41C51.2679 23.1761 51.0194 23.5 50.6642 23.7358C50.312 23.9687 49.8915 24.0852 49.4029 24.0852C48.9483 24.0852 48.5506 23.9815 48.2097 23.7741C47.8688 23.5639 47.6032 23.2741 47.4128 22.9048C47.2253 22.5355 47.1301 22.1108 47.1273 21.6307V17.4545H49.4071V21.1577C49.41 21.4901 49.4952 21.7514 49.6628 21.9418C49.8333 22.1321 50.0691 22.2273 50.3702 22.2273C50.5691 22.2273 50.7438 22.1847 50.8944 22.0994C51.0449 22.0114 51.1614 21.8878 51.2438 21.7287C51.329 21.5668 51.3702 21.3722 51.3674 21.1449ZM56.1426 26.4545C55.8784 26.4545 55.627 26.4347 55.3883 26.3949C55.1497 26.3551 54.9423 26.2997 54.7662 26.2287L55.2648 24.6009C55.4608 24.669 55.6398 24.7116 55.8017 24.7287C55.9636 24.7486 56.1028 24.7344 56.2193 24.6861C56.3358 24.6378 56.421 24.5483 56.475 24.4176L56.5347 24.277L54.225 17.4545H56.6071L57.7065 22.027H57.7747L58.8869 17.4545H61.2818L58.8741 24.5668C58.7548 24.9276 58.5829 25.25 58.3585 25.5341C58.1369 25.8182 57.8457 26.0426 57.4849 26.2074C57.127 26.3722 56.6795 26.4545 56.1426 26.4545Z" fill="white"/>
</svg>
