<svg width="15" height="10" viewBox="0 0 15 10" fill="none" xmlns="http://www.w3.org/2000/svg">
<path fill-rule="evenodd" clip-rule="evenodd" d="M0.5 1.49935C0.5 1.10152 0.658035 0.719994 0.93934 0.438689C1.22064 0.157385 1.60218 -0.000650406 2 -0.000650406H13C13.3978 -0.000650406 13.7794 0.157385 14.0607 0.438689C14.342 0.719994 14.5 1.10152 14.5 1.49935V1.99935H0.5V1.49935ZM0.5 2.99935H14.5V8.49935C14.5 8.89717 14.342 9.27871 14.0607 9.56001C13.7794 9.84131 13.3978 9.99935 13 9.99935H2C1.60218 9.99935 1.22064 9.84131 0.93934 9.56001C0.658035 9.27871 0.5 8.89717 0.5 8.49935V2.99935ZM8.5 6.49935C8.36739 6.49935 8.24021 6.55203 8.14645 6.6458C8.05268 6.73956 8 6.86674 8 6.99935C8 7.13196 8.05268 7.25914 8.14645 7.3529C8.24021 7.44667 8.36739 7.49935 8.5 7.49935H11.5C11.6326 7.49935 11.7598 7.44667 11.8536 7.3529C11.9473 7.25914 12 7.13196 12 6.99935C12 6.86674 11.9473 6.73956 11.8536 6.6458C11.7598 6.55203 11.6326 6.49935 11.5 6.49935H8.5Z" fill="white"/>
</svg>
