<svg width="13" height="10" viewBox="0 0 13 10" fill="none" xmlns="http://www.w3.org/2000/svg">
<path d="M11.5607 9.35437H1.57412C1.2294 9.35437 0.949951 9.07492 0.949951 8.73019C0.949951 8.38547 1.2294 8.10602 1.57412 8.10602H11.5608C11.9055 8.10602 12.1849 8.38549 12.1849 8.73019C12.1849 9.0749 11.9055 9.35437 11.5607 9.35437ZM11.5607 6.85772H1.57412C1.2294 6.85772 0.949951 6.57828 0.949951 6.23355C0.949951 5.88882 1.2294 5.6094 1.57412 5.6094H11.5608C11.9055 5.6094 12.1849 5.88882 12.1849 6.23355C12.1849 6.57828 11.9055 6.85772 11.5607 6.85772ZM11.5607 4.36105H1.57412C1.2294 4.36105 0.949951 4.0816 0.949951 3.73688C0.949951 3.39215 1.2294 3.1127 1.57412 3.1127H11.5608C11.9055 3.1127 12.1849 3.39215 12.1849 3.73688C12.1849 4.0816 11.9055 4.36105 11.5607 4.36105ZM11.5607 1.86441H1.57412C1.2294 1.86441 0.949951 1.58496 0.949951 1.24023C0.949951 0.895505 1.2294 0.616058 1.57412 0.616058H11.5608C11.9055 0.616058 12.1849 0.895505 12.1849 1.24023C12.1849 1.58496 11.9055 1.86441 11.5607 1.86441Z" fill="white"/>
</svg>
