<svg width="35" height="32" viewBox="0 0 35 32" fill="none" xmlns="http://www.w3.org/2000/svg">
<g filter="url(#filter0_dd_20_142)">
<rect x="5.7793" y="3.19769" width="25.5816" height="25.5816" rx="12.7908" fill="#674EFF"/>
<g clip-path="url(#clip0_20_142)">
<path d="M23.5607 20.3544H13.5741C13.2294 20.3544 12.95 20.0749 12.95 19.7302C12.95 19.3855 13.2294 19.106 13.5741 19.106H23.5608C23.9055 19.106 24.1849 19.3855 24.1849 19.7302C24.1849 20.0749 23.9055 20.3544 23.5607 20.3544ZM23.5607 17.8577H13.5741C13.2294 17.8577 12.95 17.5783 12.95 17.2335C12.95 16.8888 13.2294 16.6094 13.5741 16.6094H23.5608C23.9055 16.6094 24.1849 16.8888 24.1849 17.2335C24.1849 17.5783 23.9055 17.8577 23.5607 17.8577ZM23.5607 15.3611H13.5741C13.2294 15.3611 12.95 15.0816 12.95 14.7369C12.95 14.3922 13.2294 14.1127 13.5741 14.1127H23.5608C23.9055 14.1127 24.1849 14.3922 24.1849 14.7369C24.1849 15.0816 23.9055 15.3611 23.5607 15.3611ZM23.5607 12.8644H13.5741C13.2294 12.8644 12.95 12.585 12.95 12.2402C12.95 11.8955 13.2294 11.6161 13.5741 11.6161H23.5608C23.9055 11.6161 24.1849 11.8955 24.1849 12.2402C24.1849 12.585 23.9055 12.8644 23.5607 12.8644Z" fill="white"/>
</g>
</g>
<defs>
<filter id="filter0_dd_20_142" x="0.982748" y="-6.67572e-06" width="35.1747" height="35.1747" filterUnits="userSpaceOnUse" color-interpolation-filters="sRGB">
<feFlood flood-opacity="0" result="BackgroundImageFix"/>
<feColorMatrix in="SourceAlpha" type="matrix" values="0 0 0 0 0 0 0 0 0 0 0 0 0 0 0 0 0 0 127 0" result="hardAlpha"/>
<feOffset dy="1.59885"/>
<feGaussianBlur stdDeviation="1.59885"/>
<feColorMatrix type="matrix" values="0 0 0 0 0.0627451 0 0 0 0 0.0941176 0 0 0 0 0.156863 0 0 0 0.06 0"/>
<feBlend mode="normal" in2="BackgroundImageFix" result="effect1_dropShadow_20_142"/>
<feColorMatrix in="SourceAlpha" type="matrix" values="0 0 0 0 0 0 0 0 0 0 0 0 0 0 0 0 0 0 127 0" result="hardAlpha"/>
<feOffset dy="1.59885"/>
<feGaussianBlur stdDeviation="2.39827"/>
<feColorMatrix type="matrix" values="0 0 0 0 0.0627451 0 0 0 0 0.0941176 0 0 0 0 0.156863 0 0 0 0.1 0"/>
<feBlend mode="normal" in2="effect1_dropShadow_20_142" result="effect2_dropShadow_20_142"/>
<feBlend mode="normal" in="SourceGraphic" in2="effect2_dropShadow_20_142" result="shape"/>
</filter>
<clipPath id="clip0_20_142">
<rect width="12.7846" height="12.7846" fill="white" transform="translate(12.1738 9.59308)"/>
</clipPath>
</defs>
</svg>
