<svg width="80" height="40" viewBox="0 0 80 40" fill="none" xmlns="http://www.w3.org/2000/svg">
<g clip-path="url(#clip0_1_361)">
<path d="M0 8C0 3.58172 3.58172 0 8 0H72C76.4183 0 80 3.58172 80 8V32C80 36.4183 76.4183 40 72 40H8C3.58172 40 0 36.4183 0 32V8Z" fill="#674EFF"/>
<path d="M13.0015 25.7736V14.2264" stroke="white" stroke-width="1.23713" stroke-linecap="round" stroke-linejoin="round"/>
<path d="M17.0838 21.7496L13.002 25.7742L8.91912 21.7496" stroke="white" stroke-width="1.23713" stroke-linecap="round" stroke-linejoin="round"/>
<path d="M30.9458 24H27.6219V15.2727H30.9202C31.8151 15.2727 32.5878 15.4474 33.2384 15.7969C33.8918 16.1435 34.3946 16.6435 34.7469 17.2969C35.102 17.9474 35.2796 18.7273 35.2796 19.6364C35.2796 20.5455 35.1034 21.3267 34.7512 21.9801C34.3989 22.6307 33.8975 23.1307 33.2469 23.4801C32.5992 23.8267 31.8321 24 30.9458 24ZM29.923 22.0483H30.8605C31.3094 22.0483 31.6901 21.9744 32.0026 21.8267C32.3179 21.679 32.558 21.4304 32.7227 21.081C32.8875 20.7315 32.9699 20.25 32.9699 19.6364C32.9699 19.0227 32.8861 18.5412 32.7185 18.1918C32.5509 17.8423 32.3066 17.5937 31.9855 17.446C31.6645 17.2983 31.2696 17.2244 30.8009 17.2244H29.923V22.0483ZM39.4316 24.1193C38.7356 24.1193 38.1361 23.9858 37.6333 23.7188C37.1333 23.4489 36.7483 23.0625 36.4785 22.5597C36.2086 22.054 36.0736 21.4489 36.0736 20.7443C36.0736 20.071 36.2086 19.4815 36.4785 18.9759C36.7512 18.4673 37.1347 18.0724 37.629 17.7912C38.1233 17.5099 38.7057 17.3693 39.3762 17.3693C39.8648 17.3693 40.3066 17.4446 40.7015 17.5952C41.0992 17.7457 41.4401 17.9659 41.7242 18.2557C42.0083 18.5455 42.227 18.8977 42.3804 19.3125C42.5339 19.7273 42.6106 20.1974 42.6106 20.723V21.2599H36.8066V19.9901H40.5054C40.5026 19.7912 40.4529 19.6165 40.3563 19.4659C40.2626 19.3153 40.1347 19.1974 39.9728 19.1122C39.8137 19.0241 39.6319 18.9801 39.4273 18.9801C39.2256 18.9801 39.041 19.0241 38.8733 19.1122C38.7086 19.2003 38.5765 19.321 38.477 19.4744C38.3776 19.625 38.3265 19.7997 38.3236 19.9986V21.3494C38.3236 21.5767 38.3691 21.7784 38.46 21.9545C38.5537 22.1278 38.6858 22.2642 38.8563 22.3636C39.0296 22.4602 39.237 22.5085 39.4785 22.5085C39.6461 22.5085 39.7995 22.4858 39.9387 22.4403C40.0779 22.392 40.1972 22.3224 40.2966 22.2315C40.3989 22.1406 40.4728 22.0312 40.5182 21.9034L42.6063 21.9205C42.5296 22.3665 42.3535 22.7543 42.0779 23.0838C41.8052 23.4134 41.4444 23.669 40.9955 23.8509C40.5495 24.0298 40.0282 24.1193 39.4316 24.1193ZM43.4739 26.4545V17.4545H45.7367V18.5923H45.7921C45.8744 18.3764 45.9966 18.1761 46.1585 17.9915C46.3233 17.804 46.5278 17.6534 46.7722 17.5398C47.0165 17.4261 47.3034 17.3693 47.633 17.3693C48.0733 17.3693 48.4895 17.4858 48.8815 17.7188C49.2736 17.9517 49.5918 18.3153 49.8361 18.8097C50.0804 19.304 50.2026 19.9432 50.2026 20.7273C50.2026 21.4801 50.0847 22.1051 49.8489 22.6023C49.6159 23.0994 49.3034 23.4716 48.9114 23.7188C48.5193 23.9659 48.0889 24.0895 47.6202 24.0895C47.3077 24.0895 47.0307 24.0384 46.7892 23.9361C46.5477 23.831 46.3432 23.6918 46.1756 23.5185C46.008 23.3423 45.8801 23.1463 45.7921 22.9304H45.7537V26.4545H43.4739ZM45.7026 20.7273C45.7026 21.054 45.7466 21.3381 45.8347 21.5795C45.9227 21.8182 46.0463 22.0028 46.2054 22.1335C46.3673 22.2642 46.5619 22.3295 46.7892 22.3295C47.0165 22.3295 47.2097 22.2656 47.3688 22.1378C47.5278 22.0071 47.6486 21.8224 47.731 21.5838C47.8162 21.3452 47.8588 21.0597 47.8588 20.7273C47.8588 20.3949 47.8162 20.1094 47.731 19.8707C47.6486 19.6321 47.5278 19.4489 47.3688 19.321C47.2097 19.1932 47.0165 19.1293 46.7892 19.1293C46.5619 19.1293 46.3673 19.1932 46.2054 19.321C46.0463 19.4489 45.9227 19.6321 45.8347 19.8707C45.7466 20.1094 45.7026 20.3949 45.7026 20.7273ZM54.2278 24.1193C53.5233 24.1193 52.9196 23.9787 52.4167 23.6974C51.9139 23.4134 51.5275 23.0185 51.2576 22.5128C50.9906 22.0043 50.8571 21.4148 50.8571 20.7443C50.8571 20.0739 50.9906 19.4858 51.2576 18.9801C51.5275 18.4716 51.9139 18.0767 52.4167 17.7955C52.9196 17.5114 53.5233 17.3693 54.2278 17.3693C54.9324 17.3693 55.5346 17.5114 56.0346 17.7955C56.5375 18.0767 56.9224 18.4716 57.1895 18.9801C57.4593 19.4858 57.5943 20.0739 57.5943 20.7443C57.5943 21.4148 57.4593 22.0043 57.1895 22.5128C56.9224 23.0185 56.5375 23.4134 56.0346 23.6974C55.5346 23.9787 54.9324 24.1193 54.2278 24.1193ZM54.2449 22.4276C54.4551 22.4276 54.6369 22.358 54.7903 22.2188C54.9437 22.0795 55.0616 21.8835 55.144 21.6307C55.2264 21.375 55.2676 21.0739 55.2676 20.7273C55.2676 20.3807 55.2264 20.081 55.144 19.8281C55.0616 19.5753 54.9437 19.3793 54.7903 19.2401C54.6369 19.1009 54.4551 19.0312 54.2449 19.0312C54.0204 19.0312 53.8287 19.1009 53.6696 19.2401C53.5133 19.3793 53.394 19.5753 53.3116 19.8281C53.2292 20.081 53.188 20.3807 53.188 20.7273C53.188 21.0739 53.2292 21.375 53.3116 21.6307C53.394 21.8835 53.5133 22.0795 53.6696 22.2188C53.8287 22.358 54.0204 22.4276 54.2449 22.4276ZM64.3788 19.5511L62.2822 19.5639C62.268 19.4276 62.2182 19.3111 62.133 19.2145C62.0506 19.1151 61.9427 19.0384 61.8092 18.9844C61.6785 18.9276 61.5307 18.8991 61.366 18.8991C61.1557 18.8991 60.9739 18.9389 60.8205 19.0185C60.67 19.098 60.5961 19.2102 60.5989 19.3551C60.5961 19.4602 60.6401 19.5554 60.731 19.6406C60.8248 19.7259 60.9995 19.7926 61.2552 19.8409L62.5677 20.0795C63.2325 20.2045 63.7268 20.4119 64.0506 20.7017C64.3773 20.9886 64.5421 21.3722 64.545 21.8523C64.5421 22.3153 64.4057 22.7173 64.1359 23.0582C63.866 23.3963 63.4967 23.6577 63.0279 23.8423C62.5592 24.027 62.0251 24.1193 61.4256 24.1193C60.4427 24.1193 59.6728 23.919 59.116 23.5185C58.5592 23.1151 58.2467 22.581 58.1785 21.9162L60.4413 21.9034C60.4753 22.1193 60.5819 22.2855 60.7609 22.402C60.9398 22.5156 61.1671 22.5724 61.4427 22.5724C61.67 22.5724 61.8575 22.5327 62.0052 22.4531C62.1557 22.3707 62.231 22.2585 62.231 22.1165C62.231 21.9858 62.1685 21.8807 62.0435 21.8011C61.9214 21.7216 61.731 21.6591 61.4725 21.6136L60.3177 21.4048C59.6529 21.2884 59.1557 21.0682 58.8262 20.7443C58.4967 20.4176 58.3333 19.9986 58.3361 19.4872C58.3333 19.0384 58.4526 18.6562 58.6941 18.3409C58.9356 18.0256 59.2793 17.7855 59.7253 17.6207C60.1742 17.4531 60.7055 17.3693 61.3191 17.3693C62.2481 17.3693 62.981 17.5625 63.518 17.9489C64.0577 18.3352 64.3447 18.8693 64.3788 19.5511ZM65.3678 24V17.4545H67.6476V24H65.3678ZM66.5098 16.7514C66.1973 16.7514 65.9289 16.6491 65.7044 16.4446C65.4828 16.2372 65.372 15.9886 65.372 15.6989C65.372 15.4091 65.4828 15.1619 65.7044 14.9574C65.9289 14.75 66.1973 14.6463 66.5098 14.6463C66.8223 14.6463 67.0894 14.75 67.311 14.9574C67.5326 15.1619 67.6433 15.4091 67.6433 15.6989C67.6433 15.9886 67.5326 16.2372 67.311 16.4446C67.0894 16.6491 66.8223 16.7514 66.5098 16.7514ZM72.5997 17.4545V19.1122H68.3341V17.4545H72.5997ZM69.1778 15.8864H71.4576V21.9077C71.4576 22.0099 71.4747 22.0938 71.5088 22.1591C71.5429 22.2244 71.594 22.2727 71.6622 22.304C71.7332 22.3324 71.8213 22.3466 71.9264 22.3466C71.9974 22.3466 72.0798 22.3381 72.1736 22.321C72.2673 22.304 72.3369 22.2898 72.3824 22.2784L72.719 23.8935C72.6139 23.9247 72.4662 23.9616 72.2758 24.0043C72.0855 24.0497 71.8596 24.0795 71.5983 24.0938C71.0727 24.1193 70.6281 24.0625 70.2645 23.9233C69.9037 23.7841 69.6309 23.5639 69.4463 23.2628C69.2616 22.9616 69.1721 22.5852 69.1778 22.1335V15.8864Z" fill="white"/>
</g>
<defs>
<clipPath id="clip0_1_361">
<path d="M0 8C0 3.58172 3.58172 0 8 0H72C76.4183 0 80 3.58172 80 8V32C80 36.4183 76.4183 40 72 40H8C3.58172 40 0 36.4183 0 32V8Z" fill="white"/>
</clipPath>
</defs>
</svg>
