<svg width="34" height="32" viewBox="0 0 34 32" fill="none" xmlns="http://www.w3.org/2000/svg">
<g filter="url(#filter0_dd_20_121)">
<rect x="3.19977" y="3.19976" width="25.5981" height="25.5981" rx="12.799" fill="#674EFF"/>
<path d="M10.5741 20.7856C10.5741 21.1391 10.8606 21.4256 11.214 21.4256H20.7874C21.1409 21.4256 21.4274 21.1391 21.4274 20.7856V17.3004C21.4274 16.947 21.1409 16.6604 20.7874 16.6604H11.214C10.8606 16.6604 10.5741 16.947 10.5741 17.3004V20.7856ZM11.4548 17.5656H20.537V20.5842H11.4548V17.5656Z" fill="white"/>
<path d="M10.5739 14.6972C10.5739 15.0507 10.8604 15.3372 11.2138 15.3372H20.7872C21.1407 15.3372 21.4272 15.0507 21.4272 14.6972V11.212C21.4272 10.8585 21.1407 10.572 20.7872 10.572H11.2138C10.8604 10.572 10.5739 10.8585 10.5739 11.212V14.6972ZM11.4546 11.4772H20.5368V14.4958H11.4546V11.4772Z" fill="white"/>
</g>
<defs>
<filter id="filter0_dd_20_121" x="-1.59987" y="-4.76837e-07" width="35.1974" height="35.1974" filterUnits="userSpaceOnUse" color-interpolation-filters="sRGB">
<feFlood flood-opacity="0" result="BackgroundImageFix"/>
<feColorMatrix in="SourceAlpha" type="matrix" values="0 0 0 0 0 0 0 0 0 0 0 0 0 0 0 0 0 0 127 0" result="hardAlpha"/>
<feOffset dy="1.59988"/>
<feGaussianBlur stdDeviation="1.59988"/>
<feColorMatrix type="matrix" values="0 0 0 0 0.0627451 0 0 0 0 0.0941176 0 0 0 0 0.156863 0 0 0 0.06 0"/>
<feBlend mode="normal" in2="BackgroundImageFix" result="effect1_dropShadow_20_121"/>
<feColorMatrix in="SourceAlpha" type="matrix" values="0 0 0 0 0 0 0 0 0 0 0 0 0 0 0 0 0 0 127 0" result="hardAlpha"/>
<feOffset dy="1.59988"/>
<feGaussianBlur stdDeviation="2.39982"/>
<feColorMatrix type="matrix" values="0 0 0 0 0.0627451 0 0 0 0 0.0941176 0 0 0 0 0.156863 0 0 0 0.1 0"/>
<feBlend mode="normal" in2="effect1_dropShadow_20_121" result="effect2_dropShadow_20_121"/>
<feBlend mode="normal" in="SourceGraphic" in2="effect2_dropShadow_20_121" result="shape"/>
</filter>
</defs>
</svg>
