<svg width="12" height="12" viewBox="0 0 12 12" fill="none" xmlns="http://www.w3.org/2000/svg">
<path d="M0.574097 10.7856C0.574097 11.1391 0.860613 11.4256 1.21405 11.4256H10.7874C11.1409 11.4256 11.4274 11.1391 11.4274 10.7856V7.3004C11.4274 6.94696 11.1409 6.66045 10.7874 6.66045H1.21405C0.860614 6.66045 0.574097 6.94696 0.574097 7.3004V10.7856ZM1.45484 7.56562H10.537V10.5842H1.45484V7.56562Z" fill="white"/>
<path d="M0.573883 4.69722C0.573883 5.05065 0.860399 5.33717 1.21384 5.33717H10.7872C11.1407 5.33717 11.4272 5.05065 11.4272 4.69722V1.21198C11.4272 0.858546 11.1407 0.572029 10.7872 0.572029H1.21384C0.8604 0.572029 0.573883 0.858545 0.573883 1.21198V4.69722ZM1.45463 1.4772H10.5368V4.49576H1.45463V1.4772Z" fill="white"/>
</svg>
