<svg width="80" height="40" viewBox="0 0 80 40" fill="none" xmlns="http://www.w3.org/2000/svg">
<rect x="0.5" y="0.5" width="79" height="39" rx="7.5" stroke="#E2E0DC"/>
<g clip-path="url(#clip0_1_366)">
<path d="M19.9141 28.0788L28.0791 19.9137" stroke="white" stroke-width="1.23713" stroke-linecap="round" stroke-linejoin="round"/>
<path d="M25.6461 28.12L19.9141 28.0796L19.8728 22.3467" stroke="white" stroke-width="1.23713" stroke-linecap="round" stroke-linejoin="round"/>
<path d="M22.9796 12.8153L14.8145 20.9804" stroke="white" stroke-width="1.23713" stroke-linecap="round" stroke-linejoin="round"/>
<path d="M17.2476 12.7741L22.9796 12.8145L23.0209 18.5474" stroke="white" stroke-width="1.23713" stroke-linecap="round" stroke-linejoin="round"/>
</g>
<path d="M38.848 17.9702C38.8252 17.6776 38.7144 17.4503 38.5156 17.2884C38.3167 17.1236 38.0213 17.0412 37.6292 17.0412C37.3764 17.0412 37.169 17.0724 37.0071 17.1349C36.8451 17.1974 36.7244 17.2812 36.6448 17.3864C36.5681 17.4915 36.5284 17.6122 36.5255 17.7486C36.5198 17.8622 36.5412 17.9631 36.5894 18.0511C36.6377 18.1392 36.7116 18.2173 36.811 18.2855C36.9133 18.3537 37.0412 18.4162 37.1946 18.473C37.348 18.527 37.5269 18.5753 37.7315 18.6179L38.4559 18.7756C38.9247 18.875 39.3295 19.0071 39.6704 19.1719C40.0113 19.3366 40.2912 19.5312 40.5099 19.7557C40.7315 19.9773 40.8948 20.2287 41 20.5099C41.1079 20.7912 41.1633 21.1009 41.1662 21.4389C41.1633 22.0071 41.0213 22.4901 40.74 22.8878C40.4588 23.2827 40.0554 23.5852 39.5298 23.7955C39.0071 24.0028 38.3778 24.1065 37.642 24.1065C36.892 24.1065 36.2372 23.9957 35.6775 23.7741C35.1207 23.5497 34.6875 23.2074 34.3778 22.7472C34.071 22.2841 33.9147 21.6932 33.909 20.9744H36.0994C36.1136 21.2472 36.1818 21.4759 36.3039 21.6605C36.4289 21.8423 36.6022 21.9801 36.8238 22.0739C37.0454 22.1676 37.3082 22.2145 37.6122 22.2145C37.8735 22.2145 38.0923 22.1818 38.2684 22.1165C38.4474 22.0511 38.5838 21.9602 38.6775 21.8438C38.7713 21.7244 38.8196 21.5881 38.8224 21.4347C38.8196 21.2926 38.7741 21.169 38.686 21.0639C38.598 20.9588 38.4559 20.8651 38.2599 20.7827C38.0667 20.7003 37.8096 20.6236 37.4886 20.5526L36.6065 20.3565C35.8394 20.1889 35.2343 19.9091 34.7912 19.517C34.3508 19.125 34.1321 18.5909 34.1349 17.9148C34.1321 17.3636 34.2784 16.8821 34.5738 16.4702C34.8721 16.0554 35.2855 15.733 35.8139 15.5028C36.3423 15.2699 36.9488 15.1534 37.6335 15.1534C38.3295 15.1534 38.9318 15.2713 39.4403 15.5071C39.9517 15.7401 40.3465 16.0682 40.625 16.4915C40.9034 16.9148 41.044 17.4077 41.0468 17.9702H38.848ZM43.2013 24L41.5479 17.4545H43.8278L44.6161 21.4986H44.6672L45.5323 17.4545H47.7525L48.6474 21.4645H48.6985L49.4528 17.4545H51.7368L50.0792 24H47.6246L46.6743 20.4077H46.6062L45.6601 24H43.2013ZM54.1864 24.1065C53.7688 24.1065 53.3995 24.0369 53.0785 23.8977C52.7603 23.7585 52.5089 23.5483 52.3242 23.267C52.1424 22.983 52.0515 22.6236 52.0515 22.1889C52.0515 21.831 52.1126 21.5256 52.2347 21.2727C52.3597 21.0199 52.5316 20.8139 52.7504 20.6548C52.972 20.4929 53.2276 20.3707 53.5174 20.2884C53.81 20.2031 54.1254 20.1463 54.4634 20.1179C54.8299 20.0895 55.1254 20.0554 55.3498 20.0156C55.5742 19.973 55.7362 19.9148 55.8356 19.8409C55.9379 19.767 55.989 19.6662 55.989 19.5384V19.5213C55.989 19.3366 55.9208 19.196 55.7845 19.0994C55.6481 19 55.4705 18.9503 55.2518 18.9503C55.0132 18.9503 54.82 19.0028 54.6722 19.108C54.5245 19.2102 54.435 19.3636 54.4038 19.5682L52.3029 19.5469C52.3399 19.1491 52.472 18.7855 52.6992 18.456C52.9293 18.1264 53.2589 17.8636 53.6879 17.6676C54.1197 17.4688 54.6509 17.3693 55.2816 17.3693C55.739 17.3693 56.1509 17.4233 56.5174 17.5312C56.8839 17.6364 57.1978 17.7855 57.4592 17.9787C57.7205 18.169 57.9208 18.3963 58.06 18.6605C58.1992 18.9219 58.2688 19.2102 58.2688 19.5256V24H56.1339V23.0795H56.0828C55.9549 23.3182 55.7987 23.5142 55.614 23.6676C55.4293 23.8182 55.2177 23.929 54.9791 24C54.7404 24.071 54.4762 24.1065 54.1864 24.1065ZM54.9237 22.6534C55.114 22.6534 55.2901 22.6151 55.4521 22.5384C55.6168 22.4588 55.7504 22.3466 55.8526 22.2017C55.9549 22.0568 56.0061 21.8821 56.0061 21.6776V21.1151C55.9436 21.1406 55.8754 21.1662 55.8015 21.1918C55.7276 21.2145 55.6481 21.2358 55.5629 21.2557C55.4805 21.2756 55.3938 21.294 55.3029 21.3111C55.212 21.3281 55.1197 21.3437 55.0259 21.358C54.8384 21.3864 54.6836 21.4332 54.5614 21.4986C54.4421 21.5639 54.3526 21.6449 54.293 21.7415C54.2333 21.8352 54.2035 21.9432 54.2035 22.0653C54.2035 22.2557 54.2703 22.402 54.4038 22.5043C54.5401 22.6037 54.7134 22.6534 54.9237 22.6534ZM59.3164 26.4545V17.4545H61.5792V18.5923H61.6346C61.717 18.3764 61.8392 18.1761 62.0011 17.9915C62.1659 17.804 62.3704 17.6534 62.6147 17.5398C62.8591 17.4261 63.146 17.3693 63.4755 17.3693C63.9159 17.3693 64.3321 17.4858 64.7241 17.7188C65.1162 17.9517 65.4343 18.3153 65.6787 18.8097C65.923 19.304 66.0451 19.9432 66.0451 20.7273C66.0451 21.4801 65.9272 22.1051 65.6914 22.6023C65.4585 23.0994 65.146 23.4716 64.7539 23.7188C64.3619 23.9659 63.9315 24.0895 63.4628 24.0895C63.1503 24.0895 62.8733 24.0384 62.6318 23.9361C62.3903 23.831 62.1858 23.6918 62.0182 23.5185C61.8505 23.3423 61.7227 23.1463 61.6346 22.9304H61.5963V26.4545H59.3164ZM61.5451 20.7273C61.5451 21.054 61.5892 21.3381 61.6772 21.5795C61.7653 21.8182 61.8889 22.0028 62.048 22.1335C62.2099 22.2642 62.4045 22.3295 62.6318 22.3295C62.8591 22.3295 63.0522 22.2656 63.2113 22.1378C63.3704 22.0071 63.4912 21.8224 63.5736 21.5838C63.6588 21.3452 63.7014 21.0597 63.7014 20.7273C63.7014 20.3949 63.6588 20.1094 63.5736 19.8707C63.4912 19.6321 63.3704 19.4489 63.2113 19.321C63.0522 19.1932 62.8591 19.1293 62.6318 19.1293C62.4045 19.1293 62.2099 19.1932 62.048 19.321C61.8889 19.4489 61.7653 19.6321 61.6772 19.8707C61.5892 20.1094 61.5451 20.3949 61.5451 20.7273Z" fill="white"/>
<defs>
<clipPath id="clip0_1_366">
<rect width="24" height="24" fill="white" transform="translate(9.5 8)"/>
</clipPath>
</defs>
</svg>
