<svg width="80" height="40" viewBox="0 0 80 40" fill="none" xmlns="http://www.w3.org/2000/svg">
<g clip-path="url(#clip0_1_373)">
<path d="M9.50212 14.3088V25.8396" stroke="white" stroke-width="1.23538" stroke-linecap="round" stroke-linejoin="round"/>
<path d="M5.42558 18.3271L9.50154 14.3082L13.5787 18.3271" stroke="white" stroke-width="1.16732" stroke-linecap="round" stroke-linejoin="round"/>
<path d="M20.518 24L17.9569 15.2727H20.5138L21.741 20.7358H21.8092L23.2495 15.2727H25.278L26.7183 20.7528H26.7865L28.0138 15.2727H30.5706L28.0095 24H25.8064L24.2978 19.0142H24.2297L22.7211 24H20.518ZM31.273 24V17.4545H33.5528V24H31.273ZM32.4151 16.7514C32.1026 16.7514 31.8341 16.6491 31.6097 16.4446C31.3881 16.2372 31.2773 15.9886 31.2773 15.6989C31.2773 15.4091 31.3881 15.1619 31.6097 14.9574C31.8341 14.75 32.1026 14.6463 32.4151 14.6463C32.7276 14.6463 32.9946 14.75 33.2162 14.9574C33.4378 15.1619 33.5486 15.4091 33.5486 15.6989C33.5486 15.9886 33.4378 16.2372 33.2162 16.4446C32.9946 16.6491 32.7276 16.7514 32.4151 16.7514ZM38.5049 17.4545V19.1122H34.2393V17.4545H38.5049ZM35.0831 15.8864H37.3629V21.9077C37.3629 22.0099 37.3799 22.0938 37.414 22.1591C37.4481 22.2244 37.4992 22.2727 37.5674 22.304C37.6385 22.3324 37.7265 22.3466 37.8316 22.3466C37.9027 22.3466 37.985 22.3381 38.0788 22.321C38.1725 22.304 38.2421 22.2898 38.2876 22.2784L38.6242 23.8935C38.5191 23.9247 38.3714 23.9616 38.1811 24.0043C37.9907 24.0497 37.7649 24.0795 37.5035 24.0938C36.9779 24.1193 36.5333 24.0625 36.1697 23.9233C35.8089 23.7841 35.5362 23.5639 35.3515 23.2628C35.1669 22.9616 35.0774 22.5852 35.0831 22.1335V15.8864ZM41.7855 20.3054V24H39.5057V15.2727H41.7045V18.6861H41.7727C41.9204 18.2741 42.1648 17.9517 42.5057 17.7188C42.8494 17.4858 43.2642 17.3693 43.75 17.3693C44.2102 17.3693 44.6108 17.4744 44.9517 17.6847C45.2954 17.892 45.5611 18.1804 45.7486 18.5497C45.9389 18.919 46.0327 19.3437 46.0298 19.8239V24H43.75V20.2969C43.7528 19.9616 43.669 19.6989 43.4986 19.5085C43.331 19.3182 43.0923 19.223 42.7827 19.223C42.5838 19.223 42.4091 19.267 42.2585 19.3551C42.1108 19.4403 41.9957 19.5639 41.9133 19.7259C41.831 19.8878 41.7883 20.081 41.7855 20.3054ZM49.4819 24.0895C49.0132 24.0895 48.5828 23.9659 48.1907 23.7188C47.7987 23.4716 47.4847 23.0994 47.2489 22.6023C47.016 22.1051 46.8995 21.4801 46.8995 20.7273C46.8995 19.9432 47.0217 19.304 47.266 18.8097C47.5103 18.3153 47.8285 17.9517 48.2205 17.7188C48.6154 17.4858 49.0316 17.3693 49.4691 17.3693C49.7987 17.3693 50.0856 17.4261 50.3299 17.5398C50.5742 17.6534 50.7774 17.804 50.9393 17.9915C51.1041 18.1761 51.2276 18.3764 51.31 18.5923H51.3484V15.2727H53.6282V24H51.3654V22.9304H51.31C51.222 23.1463 51.0941 23.3423 50.9265 23.5185C50.7589 23.6918 50.5543 23.831 50.3129 23.9361C50.0742 24.0384 49.7972 24.0895 49.4819 24.0895ZM50.3129 22.3295C50.5401 22.3295 50.7333 22.2642 50.8924 22.1335C51.0543 22.0028 51.1793 21.8182 51.2674 21.5795C51.3555 21.3381 51.3995 21.054 51.3995 20.7273C51.3995 20.3949 51.3555 20.1094 51.2674 19.8707C51.1793 19.6321 51.0543 19.4489 50.8924 19.321C50.7333 19.1932 50.5401 19.1293 50.3129 19.1293C50.0856 19.1293 49.8924 19.1932 49.7333 19.321C49.5742 19.4489 49.4521 19.6321 49.3668 19.8707C49.2845 20.1094 49.2433 20.3949 49.2433 20.7273C49.2433 21.0597 49.2845 21.3452 49.3668 21.5838C49.4521 21.8224 49.5742 22.0071 49.7333 22.1378C49.8924 22.2656 50.0856 22.3295 50.3129 22.3295ZM54.711 24V17.4545H56.9226V18.6861H56.9908C57.1101 18.2315 57.3005 17.8991 57.5618 17.6889C57.826 17.4759 58.1343 17.3693 58.4865 17.3693C58.5888 17.3693 58.6897 17.3764 58.7891 17.3906C58.8914 17.4048 58.988 17.4261 59.0789 17.4545V19.4062C58.9681 19.3693 58.8289 19.3409 58.6613 19.321C58.4937 19.3011 58.3488 19.2912 58.2266 19.2912C57.9908 19.2912 57.7792 19.3437 57.5917 19.4489C57.4042 19.554 57.2564 19.7017 57.1485 19.892C57.0434 20.0795 56.9908 20.2997 56.9908 20.5526V24H54.711ZM61.2824 24.1065C60.8648 24.1065 60.4955 24.0369 60.1744 23.8977C59.8562 23.7585 59.6048 23.5483 59.4202 23.267C59.2383 22.983 59.1474 22.6236 59.1474 22.1889C59.1474 21.831 59.2085 21.5256 59.3307 21.2727C59.4557 21.0199 59.6276 20.8139 59.8463 20.6548C60.0679 20.4929 60.3236 20.3707 60.6133 20.2884C60.906 20.2031 61.2213 20.1463 61.5594 20.1179C61.9258 20.0895 62.2213 20.0554 62.4457 20.0156C62.6702 19.973 62.8321 19.9148 62.9315 19.8409C63.0338 19.767 63.0849 19.6662 63.0849 19.5384V19.5213C63.0849 19.3366 63.0168 19.196 62.8804 19.0994C62.744 19 62.5665 18.9503 62.3477 18.9503C62.1091 18.9503 61.9159 19.0028 61.7682 19.108C61.6205 19.2102 61.531 19.3636 61.4997 19.5682L59.3989 19.5469C59.4358 19.1491 59.5679 18.7855 59.7952 18.456C60.0253 18.1264 60.3548 17.8636 60.7838 17.6676C61.2156 17.4688 61.7469 17.3693 62.3776 17.3693C62.8349 17.3693 63.2469 17.4233 63.6133 17.5312C63.9798 17.6364 64.2937 17.7855 64.5551 17.9787C64.8165 18.169 65.0168 18.3963 65.156 18.6605C65.2952 18.9219 65.3648 19.2102 65.3648 19.5256V24H63.2298V23.0795H63.1787C63.0508 23.3182 62.8946 23.5142 62.7099 23.6676C62.5253 23.8182 62.3136 23.929 62.075 24C61.8364 24.071 61.5722 24.1065 61.2824 24.1065ZM62.0196 22.6534C62.2099 22.6534 62.3861 22.6151 62.548 22.5384C62.7128 22.4588 62.8463 22.3466 62.9486 22.2017C63.0508 22.0568 63.102 21.8821 63.102 21.6776V21.1151C63.0395 21.1406 62.9713 21.1662 62.8974 21.1918C62.8236 21.2145 62.744 21.2358 62.6588 21.2557C62.5764 21.2756 62.4898 21.294 62.3989 21.3111C62.308 21.3281 62.2156 21.3437 62.1219 21.358C61.9344 21.3864 61.7795 21.4332 61.6574 21.4986C61.5381 21.5639 61.4486 21.6449 61.3889 21.7415C61.3293 21.8352 61.2994 21.9432 61.2994 22.0653C61.2994 22.2557 61.3662 22.402 61.4997 22.5043C61.6361 22.6037 61.8094 22.6534 62.0196 22.6534ZM67.5885 24L65.9351 17.4545H68.2149L69.0033 21.4986H69.0544L69.9195 17.4545H72.1397L73.0345 21.4645H73.0857L73.8399 17.4545H76.124L74.4664 24H72.0118L71.0615 20.4077H70.9934L70.0473 24H67.5885Z" fill="white"/>
</g>
<rect x="0.5" y="0.5" width="79" height="39" rx="7.5" stroke="#E2E0DC"/>
<defs>
<clipPath id="clip0_1_373">
<rect width="80" height="40" rx="8" fill="white"/>
</clipPath>
</defs>
</svg>
