<svg width="48" height="48" viewBox="0 0 48 48" fill="none" xmlns="http://www.w3.org/2000/svg">
<path d="M22.5 0.866026C23.4282 0.330127 24.5718 0.330127 25.5 0.866026L43.2846 11.134C44.2128 11.6699 44.7846 12.6603 44.7846 13.7321V34.2679C44.7846 35.3397 44.2128 36.3301 43.2846 36.866L25.5 47.134C24.5718 47.6699 23.4282 47.6699 22.5 47.134L4.71539 36.866C3.78719 36.3301 3.21539 35.3397 3.21539 34.2679V13.732C3.21539 12.6603 3.78719 11.6699 4.71539 11.134L22.5 0.866026Z" fill="#0133AE"/>
<path d="M23.724 13.5615C24.2144 13.3058 24.813 13.899 24.552 14.389C24.4007 14.7883 23.8269 14.8945 23.5339 14.5901C23.2237 14.2979 23.325 13.7205 23.724 13.5615ZM18.4493 14.13C18.7472 14.0073 19.1243 14.2803 19.0939 14.605C19.1255 14.9574 18.6946 15.217 18.3909 15.0494C17.9886 14.8936 18.0346 14.2405 18.4493 14.13V14.13ZM29.2523 15.0593C28.7868 15.003 28.7131 14.2712 29.1613 14.1233C29.509 13.9537 29.8279 14.2717 29.8787 14.6012C29.8058 14.8825 29.5702 15.1402 29.2523 15.0588V15.0593ZM19.6493 16.3746C20.1474 16.0596 20.858 16.5286 20.7814 17.1072C20.7556 17.6913 19.9797 18.0297 19.542 17.6347C19.119 17.3246 19.1829 16.613 19.6493 16.3747V16.3746ZM27.2522 16.709C27.4745 16.137 28.3749 16.119 28.6278 16.677C28.8777 17.1108 28.5703 17.648 28.125 17.7954C27.535 17.9056 26.9747 17.2678 27.2524 16.7095L27.2522 16.709ZM23.0887 17.7627C23.0839 17.2705 23.5322 16.9038 24 16.8703C24.3102 16.9325 24.6485 17.0647 24.7816 17.3778C25.0296 17.8098 24.8094 18.4043 24.3612 18.6026C24.1562 18.7174 23.9139 18.6746 23.6907 18.661C23.3495 18.4935 23.0621 18.165 23.0888 17.7628L23.0887 17.7627ZM15.2447 18.4798C15.6996 18.2001 16.3134 18.7106 16.1412 19.2048C16.0463 19.6323 15.4717 19.8062 15.1432 19.5333C14.7922 19.2776 14.8481 18.6627 15.2447 18.4798ZM32.0888 18.4789C32.4748 18.1792 33.1117 18.523 33.0657 19.0099C33.0916 19.4544 32.5409 19.7894 32.1577 19.5607C31.7357 19.371 31.6927 18.7218 32.0888 18.4785V18.4789ZM25.2947 19.3633C25.9316 19.1345 26.6882 19.4083 27.0513 19.9762C27.5302 20.6705 27.2754 21.7277 26.5322 22.126C25.7621 22.5972 24.6377 22.198 24.3533 21.3379C24.0303 20.568 24.5008 19.6046 25.2947 19.3633ZM21.5574 19.4395C22.2634 19.1065 23.2134 19.3855 23.5544 20.108C23.9557 20.8109 23.6454 21.7896 22.928 22.1525C22.2097 22.5605 21.1963 22.2515 20.849 21.4965C20.4588 20.7668 20.805 19.7756 21.5574 19.4395ZM17.8153 20.7189C17.8693 20.264 18.298 19.9681 18.7309 19.9374C19.1974 19.9937 19.57 20.3559 19.6207 20.8284C19.5901 21.2957 19.2289 21.7525 18.7337 21.7496C18.1889 21.7965 17.7112 21.2546 17.8153 20.7192V20.7189ZM28.8682 20.0367C29.4276 19.711 30.2043 20.1851 30.1794 20.8277C30.2178 21.5085 29.3582 21.9887 28.8012 21.589C28.2225 21.2564 28.2676 20.32 28.8682 20.0368V20.0367ZM20.0365 22.436C20.6907 22.256 21.4387 22.5643 21.7595 23.1656C22.1105 23.7709 21.9673 24.6117 21.4215 25.0556C20.7214 25.7068 19.4302 25.4453 19.0576 24.5567C18.6295 23.7421 19.1495 22.6504 20.0365 22.4359V22.436ZM27.125 22.4326C27.7609 22.2507 28.508 22.4956 28.8499 23.0752C29.302 23.7378 29.0862 24.7261 28.4133 25.1533C27.7083 25.6493 26.6164 25.3888 26.2285 24.6133C25.7582 23.811 26.2315 22.6773 27.125 22.4326ZM15.8288 23.1886C16.3939 22.9748 17.0203 23.5984 16.7913 24.1587C16.6516 24.669 15.9323 24.858 15.5607 24.4814C15.1259 24.1281 15.2869 23.3418 15.8289 23.1886H15.8288ZM31.146 24.0016C31.1297 23.5336 31.4723 23.1187 31.9524 23.0926C32.3394 23.1539 32.7157 23.4661 32.6851 23.8874C32.7206 24.4439 32.0501 24.8221 31.5759 24.5606C31.3537 24.4477 31.2398 24.2198 31.146 24.0014V24.0016ZM13.0504 23.463C13.3903 23.3146 13.8109 23.6092 13.7333 23.9868C13.7153 24.4143 13.084 24.5786 12.8521 24.2214C12.6472 23.9738 12.7698 23.5913 13.0504 23.463ZM34.4866 23.454C34.726 23.2835 35.1101 23.406 35.2048 23.6857C35.3658 23.9912 35.0707 24.4097 34.7269 24.358C34.2443 24.402 34.0879 23.6665 34.4866 23.454ZM21.8832 25.506C22.7778 25.2733 23.7394 26.019 23.7451 26.9405C23.8035 27.8713 22.8564 28.6968 21.9406 28.4818C21.2328 28.3678 20.6774 27.686 20.7003 26.9706C20.6984 26.2866 21.2147 25.6507 21.8833 25.506H21.8832ZM25.4261 25.5041C26.3342 25.2503 27.3244 26.0096 27.31 26.9521C27.358 27.8657 26.4404 28.6634 25.5438 28.4821C24.7 28.373 24.0775 27.446 24.313 26.6272C24.4319 26.0816 24.8878 25.6379 25.4261 25.5041ZM18.5951 26.0711C19.2234 25.9639 19.8125 26.6651 19.5577 27.2614C19.3718 27.8972 18.4466 28.0696 18.0376 27.5503C17.5578 27.0516 17.916 26.1399 18.5951 26.0711ZM28.985 26.1C29.5453 25.8654 30.233 26.3499 30.1899 26.958C30.2124 27.6275 29.3633 28.089 28.8155 27.6983C28.1945 27.3473 28.3079 26.3153 28.985 26.1ZM31.8892 29.0128C31.6698 28.6039 32.0682 28.0619 32.5223 28.1376C32.7483 28.1338 32.9064 28.3118 33.0511 28.4616C33.0808 28.704 33.1306 28.9926 32.9295 29.1798C32.6563 29.5255 32.0376 29.4268 31.8892 29.0132V29.0128ZM15.243 28.2515C15.6673 27.969 16.278 28.3903 16.1826 28.8865C16.1318 29.3252 15.5796 29.576 15.2151 29.3275C14.8244 29.1015 14.8388 28.458 15.243 28.252V28.2515ZM23.6265 29.1704C24.1821 28.9253 24.8897 29.4089 24.8371 30.0208C24.8783 30.6969 24.0029 31.1652 23.4601 30.7588C22.8571 30.4102 22.9573 29.3845 23.6269 29.1702L23.6265 29.1704ZM19.743 30.0758C20.2161 29.8269 20.8512 30.2568 20.8081 30.7868C20.8225 31.2216 20.3981 31.5922 19.969 31.528C19.6136 31.5203 19.3818 31.2017 19.2679 30.8988C19.2737 30.5686 19.4096 30.2008 19.743 30.0763V30.0758ZM27.6084 30.0839C28.0949 29.7832 28.7865 30.2152 28.7405 30.7814C28.753 31.3733 27.9714 31.7525 27.5184 31.3636C27.0797 31.0589 27.1333 30.3263 27.6084 30.0839ZM28.9764 33.4653C28.7604 33.1378 29.0147 32.7433 29.3662 32.6687C29.6488 32.7262 29.9476 32.9387 29.8882 33.2663C29.847 33.7096 29.1985 33.8457 28.9764 33.4653ZM18.1188 33.1809C18.2051 32.9214 18.4139 32.6634 18.7194 32.7309C19.1648 32.7625 19.297 33.4338 18.9072 33.6407C18.5566 33.8771 18.1499 33.5534 18.1188 33.1809ZM23.3569 33.4787C23.4422 33.0948 23.9392 32.9081 24.2668 33.112C24.4828 33.205 24.5464 33.4472 24.602 33.653C24.5723 33.7602 24.5458 33.8675 24.5197 33.9747C24.3856 34.1337 24.2137 34.2927 23.99 34.2869C23.5752 34.3355 23.2011 33.8666 23.3569 33.4787Z" fill="white"/>
</svg>
