<svg width="48" height="48" viewBox="0 0 48 48" fill="none" xmlns="http://www.w3.org/2000/svg">
<path d="M22.5 0.866026C23.4282 0.330127 24.5718 0.330127 25.5 0.866026L43.2846 11.134C44.2128 11.6699 44.7846 12.6603 44.7846 13.7321V34.2679C44.7846 35.3397 44.2128 36.3301 43.2846 36.866L25.5 47.134C24.5718 47.6699 23.4282 47.6699 22.5 47.134L4.71539 36.866C3.78719 36.3301 3.21539 35.3397 3.21539 34.2679V13.732C3.21539 12.6603 3.78719 11.6699 4.71539 11.134L22.5 0.866026Z" fill="#F7931A"/>
<path d="M32.7032 21.7952C33.0568 19.431 31.2568 18.1601 28.7955 17.3123L29.594 14.1098L27.6445 13.624L26.8672 16.7422C26.3547 16.6144 25.8284 16.494 25.3053 16.3746L26.0882 13.2358L24.1399 12.75L23.341 15.9515C22.9169 15.8549 22.5004 15.7595 22.0962 15.659L22.0985 15.6489L19.4101 14.9775L18.8915 17.0597C18.8915 17.0597 20.3379 17.3913 20.3074 17.4117C21.0968 17.6087 21.2396 18.1313 21.2159 18.5455L20.3063 22.194C20.3607 22.2078 20.4312 22.2277 20.509 22.259C20.444 22.2429 20.3748 22.2252 20.303 22.208L19.0281 27.319C18.9316 27.5588 18.6867 27.9188 18.1348 27.7821C18.1543 27.8104 16.7179 27.4285 16.7179 27.4285L15.75 29.66L18.2869 30.2925C18.7589 30.4108 19.2214 30.5347 19.6769 30.6511L18.8701 33.8904L20.8174 34.3762L21.6163 31.1713C22.1482 31.3157 22.6645 31.4489 23.1699 31.5744L22.3737 34.7642L24.3232 35.25L25.1299 32.0168C28.4542 32.6459 30.9538 32.3923 32.0059 29.3855C32.8537 26.9646 31.9637 25.5683 30.2148 24.6577C31.4886 24.3639 32.4474 23.5259 32.7032 21.7952ZM28.2491 28.041C27.6466 30.4619 23.5706 29.1533 22.2491 28.8251L23.3197 24.5336C24.6411 24.8635 28.8786 25.5163 28.2491 28.041ZM28.852 21.7601C28.3024 23.9621 24.9099 22.8434 23.8094 22.5691L24.78 18.677C25.8805 18.9513 29.4243 19.4633 28.852 21.7601Z" fill="white"/>
</svg>
