<svg width="48" height="48" viewBox="0 0 48 48" fill="none" xmlns="http://www.w3.org/2000/svg">
<path d="M22.5 0.866026C23.4282 0.330127 24.5718 0.330127 25.5 0.866026L43.2846 11.134C44.2128 11.6699 44.7846 12.6603 44.7846 13.7321V34.2679C44.7846 35.3397 44.2128 36.3301 43.2846 36.866L25.5 47.134C24.5718 47.6699 23.4282 47.6699 22.5 47.134L4.71539 36.866C3.78719 36.3301 3.21539 35.3397 3.21539 34.2679V13.732C3.21539 12.6603 3.78719 11.6699 4.71539 11.134L22.5 0.866026Z" fill="#FBC44D"/>
<path d="M24.2687 25.0361H30.8079C30.9473 25.0361 31.0131 25.0361 31.0231 24.8533C31.0766 24.1881 31.0766 23.519 31.0231 22.853C31.0231 22.7237 30.9589 22.6702 30.8187 22.6702H17.8046C17.6435 22.6702 17.6002 22.7237 17.6002 22.8747V24.789C17.6002 25.0361 17.6002 25.0361 17.8581 25.0361H24.2687ZM30.2929 20.4329C30.3115 20.3842 30.3115 20.3307 30.2929 20.2827C30.1837 20.045 30.0543 19.8181 29.9041 19.6051C29.678 19.2411 29.4116 18.9058 29.108 18.6045C28.9647 18.4226 28.799 18.2592 28.6132 18.1205C27.6823 17.3283 26.5757 16.7676 25.3862 16.4857C24.786 16.351 24.1727 16.2867 23.5578 16.2921H17.7822C17.6211 16.2921 17.5994 16.3564 17.5994 16.4966V20.3145C17.5994 20.4755 17.5994 20.5189 17.8038 20.5189H30.2154C30.2154 20.5189 30.3231 20.4972 30.3448 20.4329H30.2921H30.2929ZM30.2929 27.2734C30.1101 27.2532 29.9258 27.2532 29.743 27.2734H17.8155C17.6544 27.2734 17.6002 27.2734 17.6002 27.4887V31.2213C17.6002 31.3933 17.6002 31.4366 17.8155 31.4366H23.3223C23.5856 31.4568 23.8489 31.4382 24.1068 31.3832C24.906 31.3259 25.6921 31.1524 26.4417 30.8667C26.7143 30.7722 26.9776 30.6491 27.2262 30.5011H27.3013C28.5923 29.8297 29.6408 28.775 30.3022 27.4801C30.3022 27.4801 30.3773 27.3175 30.2929 27.2749V27.2734ZM15.4388 33.3719V33.3076V30.8016V29.9521V27.4244C15.4388 27.2842 15.4388 27.2633 15.2669 27.2633H12.9328C12.8034 27.2633 12.75 27.2633 12.75 27.0914V25.0477H15.2452C15.3846 25.0477 15.4388 25.0477 15.4388 24.8649V22.8429C15.4388 22.7136 15.4388 22.6819 15.2669 22.6819H12.9328C12.8034 22.6819 12.75 22.6819 12.75 22.5099V20.6173C12.75 20.4988 12.75 20.467 12.9219 20.467H15.2343C15.3954 20.467 15.4388 20.467 15.4388 20.2626V14.4653C15.4388 14.2934 15.4388 14.25 15.6541 14.25H23.7204C24.3059 14.2732 24.8874 14.3375 25.4628 14.4436C26.6485 14.6628 27.7876 15.0864 28.8292 15.6912C29.52 16.0978 30.1558 16.5887 30.7219 17.1541C31.1478 17.5963 31.5319 18.0748 31.8727 18.5844C32.2111 19.1009 32.4922 19.6531 32.7129 20.23C32.74 20.3803 32.8841 20.4817 33.0343 20.4562H34.9595C35.2065 20.4562 35.2065 20.4562 35.2174 20.6932V22.4573C35.2174 22.6292 35.1531 22.6726 34.9804 22.6726H33.4959C33.3456 22.6726 33.3023 22.6726 33.3131 22.8662C33.372 23.5213 33.372 24.1788 33.3131 24.834C33.3131 25.0167 33.3131 25.0384 33.5183 25.0384H35.2166C35.2917 25.1352 35.2166 25.232 35.2166 25.3296C35.2275 25.4543 35.2275 25.5805 35.2166 25.7052V27.007C35.2166 27.1897 35.1632 27.2439 35.0013 27.2439H32.9685C32.8268 27.2168 32.6889 27.3074 32.6564 27.4484C32.1724 28.7068 31.398 29.8351 30.3974 30.7397C30.0319 31.0688 29.6478 31.3786 29.2466 31.6643C28.8161 31.9121 28.3971 32.17 27.9557 32.3745C27.1433 32.74 26.2915 33.0095 25.4171 33.1806C24.587 33.3293 23.7452 33.3967 22.9003 33.3851H15.4357V33.3742L15.4388 33.3719Z" fill="white"/>
</svg>
