<svg width="48" height="48" viewBox="0 0 48 48" fill="none" xmlns="http://www.w3.org/2000/svg">
<path d="M22.5 0.866026C23.4282 0.330127 24.5718 0.330127 25.5 0.866026L43.2846 11.134C44.2128 11.6699 44.7846 12.6603 44.7846 13.7321V34.2679C44.7846 35.3397 44.2128 36.3301 43.2846 36.866L25.5 47.134C24.5718 47.6699 23.4282 47.6699 22.5 47.134L4.71539 36.866C3.78719 36.3301 3.21539 35.3397 3.21539 34.2679V13.732C3.21539 12.6603 3.78719 11.6699 4.71539 11.134L22.5 0.866026Z" fill="#E6007A"/>
<path fill-rule="evenodd" clip-rule="evenodd" d="M24.0004 17.977C26.1418 17.977 27.8777 16.9748 27.8777 15.7385C27.8777 14.5022 26.1418 13.5 24.0004 13.5C21.859 13.5 20.1231 14.5022 20.1231 15.7385C20.1231 16.9748 21.859 17.977 24.0004 17.977ZM33.2961 25.0555C34.3746 25.6737 34.381 27.6671 33.3103 29.5079C32.2396 31.3488 30.4973 32.3399 29.4188 31.7218C28.3403 31.1037 28.3339 29.1103 29.4046 27.2694C30.4753 25.4286 32.2176 24.4374 33.2961 25.0555ZM27.8777 32.6053C27.8777 33.8416 26.1418 34.8438 24.0004 34.8438C21.859 34.8438 20.1231 33.8416 20.1231 32.6053C20.1231 31.369 21.859 30.3668 24.0004 30.3668C26.1418 30.3668 27.8777 31.369 27.8777 32.6053ZM18.5815 16.6224C19.6608 17.241 19.6678 19.2347 18.5971 21.0756C17.5264 22.9165 15.7835 23.9073 14.7042 23.2888C13.6249 22.6702 13.618 20.6764 14.6887 18.8356C15.7594 16.9947 17.5023 16.0038 18.5815 16.6224ZM18.582 31.7214C19.6613 31.1028 19.6683 29.1091 18.5976 27.2682C17.5269 25.4274 15.784 24.4365 14.7047 25.0551C13.6255 25.6736 13.6185 27.6674 14.6892 29.5082C15.7599 31.3491 17.5028 32.3399 18.582 31.7214ZM33.3113 18.8368C34.382 20.6777 34.3757 22.6711 33.2971 23.2892C32.2186 23.9074 30.4763 22.9162 29.4056 21.0753C28.3349 19.2345 28.3412 17.2411 29.4198 16.6229C30.4983 16.0048 32.2406 16.996 33.3113 18.8368Z" fill="white"/>
</svg>
