<svg width="48" height="48" viewBox="0 0 48 48" fill="none" xmlns="http://www.w3.org/2000/svg">
<path d="M22.5 0.866026C23.4282 0.330127 24.5718 0.330127 25.5 0.866026L43.2846 11.134C44.2128 11.6699 44.7846 12.6603 44.7846 13.7321V34.2679C44.7846 35.3397 44.2128 36.3301 43.2846 36.866L25.5 47.134C24.5718 47.6699 23.4282 47.6699 22.5 47.134L4.71539 36.866C3.78719 36.3301 3.21539 35.3397 3.21539 34.2679V13.732C3.21539 12.6603 3.78719 11.6699 4.71539 11.134L22.5 0.866026Z" fill="#5FC99C"/>
<path d="M34.3919 29.5859L30.9252 33.248C30.8498 33.3276 30.7586 33.391 30.6573 33.4344C30.556 33.4777 30.4467 33.5 30.3362 33.5H13.9025C13.824 33.5 13.7473 33.4774 13.6818 33.4351C13.6162 33.3927 13.5646 33.3324 13.5334 33.2616C13.5021 33.1907 13.4925 33.1125 13.5058 33.0363C13.5191 32.9602 13.5547 32.8896 13.6082 32.8331L17.0775 29.171C17.1527 29.0916 17.2435 29.0283 17.3445 28.985C17.4455 28.9417 17.5545 28.9192 17.6647 28.919H34.0975C34.1759 28.919 34.2526 28.9416 34.3183 28.9839C34.3838 29.0263 34.4353 29.0866 34.4667 29.1574C34.4979 29.2283 34.5075 29.3066 34.4942 29.3827C34.4809 29.4588 34.4453 29.5294 34.3919 29.5859ZM30.9252 22.2115C30.8498 22.1319 30.7586 22.0685 30.6573 22.0251C30.556 21.9818 30.4467 21.9595 30.3362 21.9595H13.9025C13.824 21.9595 13.7473 21.9821 13.6818 22.0244C13.6162 22.0668 13.5646 22.1271 13.5334 22.1979C13.5021 22.2688 13.4925 22.3471 13.5058 22.4232C13.5191 22.4993 13.5547 22.5699 13.6082 22.6264L17.0775 26.2885C17.1527 26.3679 17.2435 26.4311 17.3445 26.4745C17.4455 26.5178 17.5545 26.5403 17.6647 26.5405H34.0975C34.1759 26.5405 34.2526 26.5179 34.3183 26.4755C34.3838 26.4332 34.4353 26.3729 34.4667 26.3021C34.4979 26.2312 34.5075 26.1529 34.4942 26.0768C34.4809 26.0007 34.4453 25.9301 34.3919 25.8736L30.9252 22.2115ZM13.9025 19.581H30.3362C30.4467 19.581 30.556 19.5587 30.6573 19.5153C30.7586 19.472 30.8498 19.4085 30.9252 19.329L34.3919 15.6669C34.4453 15.6104 34.4809 15.5398 34.4942 15.4637C34.5075 15.3875 34.4979 15.3093 34.4667 15.2384C34.4353 15.1676 34.3838 15.1073 34.3183 15.0649C34.2526 15.0226 34.1759 15 34.0975 15H17.6647C17.5545 15.0002 17.4455 15.0226 17.3445 15.066C17.2435 15.1093 17.1527 15.1726 17.0775 15.252L13.6091 18.9141C13.5557 18.9705 13.5201 19.041 13.5068 19.1171C13.4934 19.1931 13.5029 19.2713 13.5341 19.3421C13.5652 19.4129 13.6167 19.4732 13.6821 19.5157C13.7475 19.5581 13.8241 19.5808 13.9025 19.581Z" fill="white"/>
</svg>
