<svg width="48" height="48" viewBox="0 0 48 48" fill="none" xmlns="http://www.w3.org/2000/svg">
<path d="M22.5 0.866026C23.4282 0.330127 24.5718 0.330127 25.5 0.866026L43.2846 11.134C44.2128 11.6699 44.7846 12.6603 44.7846 13.7321V34.2679C44.7846 35.3397 44.2128 36.3301 43.2846 36.866L25.5 47.134C24.5718 47.6699 23.4282 47.6699 22.5 47.134L4.71539 36.866C3.78719 36.3301 3.21539 35.3397 3.21539 34.2679V13.732C3.21539 12.6603 3.78719 11.6699 4.71539 11.134L22.5 0.866026Z" fill="#2775CA"/>
<path fill-rule="evenodd" clip-rule="evenodd" d="M15.2737 20.7569C13.466 25.5565 15.9593 30.9793 20.8211 32.7245C21.0081 32.8492 21.1951 33.0985 21.1951 33.2855V34.1582C21.1951 34.2828 21.1951 34.3452 21.1327 34.4074C21.0705 34.6568 20.8211 34.7814 20.5717 34.6568C17.0813 33.5348 14.401 30.8545 13.279 27.3641C11.4091 21.4427 14.6504 15.1472 20.5717 13.2772C20.6341 13.215 20.7587 13.215 20.8211 13.215C21.0705 13.2772 21.1951 13.4642 21.1951 13.7136V14.5862C21.1951 14.8979 21.0705 15.0849 20.8211 15.2095C18.2656 16.1445 16.2087 18.139 15.2737 20.7569ZM26.8673 13.5266C26.9295 13.2772 27.1789 13.1526 27.4283 13.2772C30.8564 14.3992 33.599 17.0795 34.721 20.6323C36.5909 26.5537 33.3496 32.8492 27.4283 34.7192C27.3659 34.7814 27.2413 34.7814 27.1789 34.7814C26.9295 34.7192 26.8049 34.5322 26.8049 34.2828V33.4102C26.8049 33.0985 26.9295 32.9115 27.1789 32.7869C29.7344 31.8519 31.7913 29.8574 32.7263 27.2395C34.534 22.4399 32.0407 17.0171 27.1789 15.2719C26.9919 15.1472 26.8049 14.8979 26.8049 14.6486V13.776C26.8049 13.6512 26.8049 13.589 26.8673 13.5266ZM24.1854 22.9382C26.8033 23.2498 28.1122 23.9978 28.1122 26.1793C28.1122 27.8623 26.8657 29.1712 24.9958 29.483V30.9789C24.9334 31.2905 24.7464 31.4775 24.497 31.4775H23.5621C23.2505 31.4151 23.0635 31.2282 23.0635 30.9789V29.483C21.0066 29.1712 20.0093 28.0493 19.7601 26.4911V26.4287C19.7601 26.1793 19.947 25.9923 20.1963 25.9923H21.256C21.443 25.9923 21.63 26.1171 21.6922 26.3663C21.8792 27.3013 22.4401 27.987 24.0608 27.987C25.245 27.987 26.1177 27.3014 26.1177 26.3041C26.1177 25.3067 25.5568 24.9328 23.8115 24.6212C21.1936 24.3094 19.947 23.4992 19.947 21.4423C19.947 19.8839 21.1312 18.6374 23.0011 18.388V16.9544C23.0635 16.6427 23.2505 16.4557 23.4999 16.4557H24.4348C24.7464 16.518 24.9334 16.705 24.9334 16.9544V18.4504C26.3669 18.575 27.4889 19.6346 27.7383 21.0059V21.0683C27.7383 21.3175 27.5513 21.5045 27.3019 21.5045H26.3047C26.1177 21.5045 25.9307 21.3799 25.8684 21.1929C25.5568 20.2579 24.9334 19.8839 23.8115 19.8839C22.5649 19.8839 21.9416 20.4448 21.9416 21.3175C21.9416 22.1902 22.3155 22.6888 24.1854 22.9382Z" fill="white"/>
</svg>
