<svg width="48" height="48" viewBox="0 0 48 48" fill="none" xmlns="http://www.w3.org/2000/svg">
<path d="M22.5 0.866026C23.4282 0.330127 24.5718 0.330127 25.5 0.866026L43.2846 11.134C44.2128 11.6699 44.7846 12.6603 44.7846 13.7321V34.2679C44.7846 35.3397 44.2128 36.3301 43.2846 36.866L25.5 47.134C24.5718 47.6699 23.4282 47.6699 22.5 47.134L4.71539 36.866C3.78719 36.3301 3.21539 35.3397 3.21539 34.2679V13.732C3.21539 12.6603 3.78719 11.6699 4.71539 11.134L22.5 0.866026Z" fill="#26A17B"/>
<path fill-rule="evenodd" clip-rule="evenodd" d="M26.1364 24.6481C26.0171 24.657 25.4006 24.6938 24.0254 24.6938C22.9316 24.6938 22.155 24.661 21.8825 24.6481C17.6555 24.4621 14.5003 23.7263 14.5003 22.8453C14.5003 21.9643 17.6555 21.2295 21.8825 21.0405V23.9152C22.1589 23.9351 22.9504 23.9819 24.0442 23.9819C25.3568 23.9819 26.0141 23.9272 26.1324 23.9162V21.0425C30.3505 21.2305 33.4987 21.9663 33.4987 22.8453C33.4987 23.7243 30.3515 24.4602 26.1324 24.6471L26.1364 24.6481ZM26.1364 20.7452V18.1728H32.023V14.25H15.9959V18.1728H21.8815V20.7442C17.0976 20.964 13.5 21.9116 13.5 23.0472C13.5 24.1827 17.0976 25.1294 21.8815 25.3501V33.5934H26.1354V25.3471C30.9084 25.1274 34.5 24.1807 34.5 23.0462C34.5 21.9116 30.9113 20.965 26.1354 20.7442L26.1364 20.7452Z" fill="white"/>
</svg>
